M48
METRIC,LZ,000.000
;FILE_FORMAT=3:3
;TYPE=PLATED
;Layer: PTH_Through
;EasyEDA v6.5.1, 2022-06-13 06:58:02
;a67cddfb3fce44daa9051d46cbbcc19f,10
;Gerber Generator version 0.2
;Holesize 1 = 0.306 mm
T01C0.306
;Holesize 2 = 0.920 mm
T02C0.920
;Holesize 3 = 1.000 mm
T03C1.000
;Holesize 4 = 1.101 mm
T04C1.101
;Holesize 5 = 2.101 mm
T05C2.101
;Holesize 6 = 3.501 mm
T06C3.501
%
G05
G90
T01
X023318Y023923
X023318Y013923
X023318Y008923
X023318Y003923
X028318Y018923
X028318Y013923
X028318Y008923
X033318Y023923
X033318Y018923
X033318Y013923
X033318Y008923
X038318Y023923
X038318Y018923
X038318Y013923
X038318Y008923
X038318Y003923
X001077Y018923
X001077Y013923
X001077Y008923
X001077Y003923
X002000Y023923
X006077Y013923
X006077Y008923
X011077Y023923
X011077Y018923
X011077Y013923
X011077Y008923
X016077Y023923
X016077Y013923
X016077Y008923
X016077Y003923
T02
X023551Y011800
X016553Y011800
X021052Y011800
X019053Y011800
T03
X026571Y014900G85X026571Y013500
X013429Y014900G85X013429Y013500
T04
X023499Y019646
X021000Y019646
X019000Y019646
X016500Y019646
T05
X013000Y022356
X026999Y022356
T06
X008500Y005000
X031500Y005000
M30
