G04 Layer: BottomSilkscreenLayer*
G04 EasyEDA v6.5.1, 2022-06-13 06:58:02*
G04 a67cddfb3fce44daa9051d46cbbcc19f,10*
G04 Gerber Generator version 0.2*
G04 Scale: 100 percent, Rotated: No, Reflected: No *
G04 Dimensions in millimeters *
G04 leading zeros omitted , absolute positions ,4 integer and 5 decimal *
%FSLAX45Y45*%
%MOMM*%

%ADD18C,0.2032*%
%ADD19C,0.1524*%

%LPD*%
D18*
X3821092Y1000000D02*
G01*
X3706545Y1000000D01*
X3821092Y1000000D02*
G01*
X3821092Y1049091D01*
X3815636Y1065456D01*
X3810182Y1070909D01*
X3799273Y1076363D01*
X3788364Y1076363D01*
X3777454Y1070909D01*
X3771999Y1065456D01*
X3766545Y1049091D01*
X3766545Y1000000D02*
G01*
X3766545Y1049091D01*
X3761092Y1065456D01*
X3755636Y1070909D01*
X3744727Y1076363D01*
X3728364Y1076363D01*
X3717455Y1070909D01*
X3711999Y1065456D01*
X3706545Y1049091D01*
X3706545Y1000000D01*
X3750183Y1112365D02*
G01*
X3750183Y1177818D01*
X3761092Y1177818D01*
X3771999Y1172364D01*
X3777454Y1166909D01*
X3782908Y1155999D01*
X3782908Y1139637D01*
X3777454Y1128727D01*
X3766545Y1117818D01*
X3750183Y1112365D01*
X3739273Y1112365D01*
X3722908Y1117818D01*
X3711999Y1128727D01*
X3706545Y1139637D01*
X3706545Y1155999D01*
X3711999Y1166909D01*
X3722908Y1177818D01*
X3782908Y1213817D02*
G01*
X3706545Y1213817D01*
X3761092Y1213817D02*
G01*
X3777454Y1230182D01*
X3782908Y1241092D01*
X3782908Y1257454D01*
X3777454Y1268364D01*
X3761092Y1273817D01*
X3706545Y1273817D01*
X3766545Y1375272D02*
G01*
X3777454Y1364363D01*
X3782908Y1353454D01*
X3782908Y1337091D01*
X3777454Y1326182D01*
X3766545Y1315272D01*
X3750183Y1309819D01*
X3739273Y1309819D01*
X3722908Y1315272D01*
X3711999Y1326182D01*
X3706545Y1337091D01*
X3706545Y1353454D01*
X3711999Y1364363D01*
X3722908Y1375272D01*
X3821092Y1411272D02*
G01*
X3706545Y1411272D01*
X3761092Y1411272D02*
G01*
X3777454Y1427637D01*
X3782908Y1438546D01*
X3782908Y1454909D01*
X3777454Y1465818D01*
X3761092Y1471272D01*
X3706545Y1471272D01*
X3821092Y1523636D02*
G01*
X3728364Y1523636D01*
X3711999Y1529092D01*
X3706545Y1539999D01*
X3706545Y1550908D01*
X3782908Y1507274D02*
G01*
X3782908Y1545455D01*
X3782908Y1614182D02*
G01*
X3777454Y1603273D01*
X3766545Y1592364D01*
X3750183Y1586910D01*
X3739273Y1586910D01*
X3722908Y1592364D01*
X3711999Y1603273D01*
X3706545Y1614182D01*
X3706545Y1630545D01*
X3711999Y1641454D01*
X3722908Y1652363D01*
X3739273Y1657819D01*
X3750183Y1657819D01*
X3766545Y1652363D01*
X3777454Y1641454D01*
X3782908Y1630545D01*
X3782908Y1614182D01*
X3782908Y1693819D02*
G01*
X3668364Y1693819D01*
X3766545Y1693819D02*
G01*
X3777454Y1704728D01*
X3782908Y1715637D01*
X3782908Y1732000D01*
X3777454Y1742909D01*
X3766545Y1753819D01*
X3750183Y1759272D01*
X3739273Y1759272D01*
X3722908Y1753819D01*
X3711999Y1742909D01*
X3706545Y1732000D01*
X3706545Y1715637D01*
X3711999Y1704728D01*
X3722908Y1693819D01*
X3782908Y1879272D02*
G01*
X3668364Y1879272D01*
X3766545Y1879272D02*
G01*
X3777454Y1890181D01*
X3782908Y1901090D01*
X3782908Y1917456D01*
X3777454Y1928362D01*
X3766545Y1939272D01*
X3750183Y1944728D01*
X3739273Y1944728D01*
X3722908Y1939272D01*
X3711999Y1928362D01*
X3706545Y1917456D01*
X3706545Y1901090D01*
X3711999Y1890181D01*
X3722908Y1879272D01*
X3782908Y2007999D02*
G01*
X3777454Y1997090D01*
X3766545Y1986183D01*
X3750183Y1980727D01*
X3739273Y1980727D01*
X3722908Y1986183D01*
X3711999Y1997090D01*
X3706545Y2007999D01*
X3706545Y2024364D01*
X3711999Y2035274D01*
X3722908Y2046183D01*
X3739273Y2051636D01*
X3750183Y2051636D01*
X3766545Y2046183D01*
X3777454Y2035274D01*
X3782908Y2024364D01*
X3782908Y2007999D01*
X3782908Y2087636D02*
G01*
X3706545Y2109454D01*
X3782908Y2131273D02*
G01*
X3706545Y2109454D01*
X3782908Y2131273D02*
G01*
X3706545Y2153091D01*
X3782908Y2174910D02*
G01*
X3706545Y2153091D01*
X3750183Y2210909D02*
G01*
X3750183Y2276363D01*
X3761092Y2276363D01*
X3771999Y2270909D01*
X3777454Y2265453D01*
X3782908Y2254547D01*
X3782908Y2238181D01*
X3777454Y2227272D01*
X3766545Y2216363D01*
X3750183Y2210909D01*
X3739273Y2210909D01*
X3722908Y2216363D01*
X3711999Y2227272D01*
X3706545Y2238181D01*
X3706545Y2254547D01*
X3711999Y2265453D01*
X3722908Y2276363D01*
X3782908Y2312365D02*
G01*
X3706545Y2312365D01*
X3750183Y2312365D02*
G01*
X3766545Y2317818D01*
X3777454Y2328727D01*
X3782908Y2339637D01*
X3782908Y2355999D01*
X3544945Y1060000D02*
G01*
X3555855Y1054547D01*
X3561308Y1038181D01*
X3561308Y1021819D01*
X3555855Y1005453D01*
X3544945Y1000000D01*
X3534036Y1005453D01*
X3528583Y1016363D01*
X3523127Y1043637D01*
X3517673Y1054547D01*
X3506764Y1060000D01*
X3501308Y1060000D01*
X3490399Y1054547D01*
X3484946Y1038181D01*
X3484946Y1021819D01*
X3490399Y1005453D01*
X3501308Y1000000D01*
X3561308Y1095999D02*
G01*
X3506764Y1095999D01*
X3490399Y1101455D01*
X3484946Y1112365D01*
X3484946Y1128727D01*
X3490399Y1139637D01*
X3506764Y1155999D01*
X3561308Y1155999D02*
G01*
X3484946Y1155999D01*
X3561308Y1192001D02*
G01*
X3446764Y1192001D01*
X3544945Y1192001D02*
G01*
X3555855Y1202908D01*
X3561308Y1213817D01*
X3561308Y1230182D01*
X3555855Y1241092D01*
X3544945Y1252001D01*
X3528583Y1257454D01*
X3517673Y1257454D01*
X3501308Y1252001D01*
X3490399Y1241092D01*
X3484946Y1230182D01*
X3484946Y1213817D01*
X3490399Y1202908D01*
X3501308Y1192001D01*
X3561308Y1293454D02*
G01*
X3446764Y1293454D01*
X3544945Y1293454D02*
G01*
X3555855Y1304363D01*
X3561308Y1315272D01*
X3561308Y1331635D01*
X3555855Y1342544D01*
X3544945Y1353454D01*
X3528583Y1358910D01*
X3517673Y1358910D01*
X3501308Y1353454D01*
X3490399Y1342544D01*
X3484946Y1331635D01*
X3484946Y1315272D01*
X3490399Y1304363D01*
X3501308Y1293454D01*
X3599489Y1394909D02*
G01*
X3484946Y1394909D01*
X3561308Y1436364D02*
G01*
X3484946Y1469090D01*
X3561308Y1501818D02*
G01*
X3484946Y1469090D01*
X3463127Y1458183D01*
X3452218Y1447274D01*
X3446764Y1436364D01*
X3446764Y1430909D01*
X3561308Y1687273D02*
G01*
X3484946Y1687273D01*
X3544945Y1687273D02*
G01*
X3555855Y1676364D01*
X3561308Y1665455D01*
X3561308Y1649092D01*
X3555855Y1638183D01*
X3544945Y1627273D01*
X3528583Y1621817D01*
X3517673Y1621817D01*
X3501308Y1627273D01*
X3490399Y1638183D01*
X3484946Y1649092D01*
X3484946Y1665455D01*
X3490399Y1676364D01*
X3501308Y1687273D01*
X3599489Y1788728D02*
G01*
X3484946Y1788728D01*
X3544945Y1788728D02*
G01*
X3555855Y1777819D01*
X3561308Y1766910D01*
X3561308Y1750545D01*
X3555855Y1739635D01*
X3544945Y1728729D01*
X3528583Y1723273D01*
X3517673Y1723273D01*
X3501308Y1728729D01*
X3490399Y1739635D01*
X3484946Y1750545D01*
X3484946Y1766910D01*
X3490399Y1777819D01*
X3501308Y1788728D01*
X3561308Y1890181D02*
G01*
X3484946Y1890181D01*
X3544945Y1890181D02*
G01*
X3555855Y1879272D01*
X3561308Y1868363D01*
X3561308Y1852000D01*
X3555855Y1841091D01*
X3544945Y1830181D01*
X3528583Y1824728D01*
X3517673Y1824728D01*
X3501308Y1830181D01*
X3490399Y1841091D01*
X3484946Y1852000D01*
X3484946Y1868363D01*
X3490399Y1879272D01*
X3501308Y1890181D01*
X3561308Y1926183D02*
G01*
X3446764Y1926183D01*
X3544945Y1926183D02*
G01*
X3555855Y1937090D01*
X3561308Y1947999D01*
X3561308Y1964364D01*
X3555855Y1975274D01*
X3544945Y1986183D01*
X3528583Y1991636D01*
X3517673Y1991636D01*
X3501308Y1986183D01*
X3490399Y1975274D01*
X3484946Y1964364D01*
X3484946Y1947999D01*
X3490399Y1937090D01*
X3501308Y1926183D01*
X3599489Y2044001D02*
G01*
X3506764Y2044001D01*
X3490399Y2049454D01*
X3484946Y2060364D01*
X3484946Y2071273D01*
X3561308Y2027636D02*
G01*
X3561308Y2065817D01*
X3528583Y2107272D02*
G01*
X3528583Y2172728D01*
X3539490Y2172728D01*
X3550399Y2167272D01*
X3555855Y2161819D01*
X3561308Y2150910D01*
X3561308Y2134544D01*
X3555855Y2123638D01*
X3544945Y2112728D01*
X3528583Y2107272D01*
X3517673Y2107272D01*
X3501308Y2112728D01*
X3490399Y2123638D01*
X3484946Y2134544D01*
X3484946Y2150910D01*
X3490399Y2161819D01*
X3501308Y2172728D01*
X3561308Y2208728D02*
G01*
X3484946Y2208728D01*
X3528583Y2208728D02*
G01*
X3544945Y2214181D01*
X3555855Y2225090D01*
X3561308Y2236000D01*
X3561308Y2252365D01*
X3339708Y1000000D02*
G01*
X3263346Y1032728D01*
X3339708Y1065456D02*
G01*
X3263346Y1032728D01*
X3306980Y1101455D02*
G01*
X3306980Y1166909D01*
X3317890Y1166909D01*
X3328799Y1161455D01*
X3334255Y1155999D01*
X3339708Y1145090D01*
X3339708Y1128727D01*
X3334255Y1117818D01*
X3323346Y1106909D01*
X3306980Y1101455D01*
X3296074Y1101455D01*
X3279708Y1106909D01*
X3268799Y1117818D01*
X3263346Y1128727D01*
X3263346Y1145090D01*
X3268799Y1155999D01*
X3279708Y1166909D01*
X3339708Y1202908D02*
G01*
X3263346Y1202908D01*
X3306980Y1202908D02*
G01*
X3323346Y1208364D01*
X3334255Y1219273D01*
X3339708Y1230182D01*
X3339708Y1246545D01*
X3323346Y1342544D02*
G01*
X3334255Y1337091D01*
X3339708Y1320728D01*
X3339708Y1304363D01*
X3334255Y1288000D01*
X3323346Y1282545D01*
X3312436Y1288000D01*
X3306980Y1298910D01*
X3301527Y1326182D01*
X3296074Y1337091D01*
X3285164Y1342544D01*
X3279708Y1342544D01*
X3268799Y1337091D01*
X3263346Y1320728D01*
X3263346Y1304363D01*
X3268799Y1288000D01*
X3279708Y1282545D01*
X3377890Y1378546D02*
G01*
X3372436Y1384000D01*
X3377890Y1389456D01*
X3383346Y1384000D01*
X3377890Y1378546D01*
X3339708Y1384000D02*
G01*
X3263346Y1384000D01*
X3339708Y1452727D02*
G01*
X3334255Y1441818D01*
X3323346Y1430909D01*
X3306980Y1425455D01*
X3296074Y1425455D01*
X3279708Y1430909D01*
X3268799Y1441818D01*
X3263346Y1452727D01*
X3263346Y1469090D01*
X3268799Y1479999D01*
X3279708Y1490908D01*
X3296074Y1496364D01*
X3306980Y1496364D01*
X3323346Y1490908D01*
X3334255Y1479999D01*
X3339708Y1469090D01*
X3339708Y1452727D01*
X3339708Y1532364D02*
G01*
X3263346Y1532364D01*
X3317890Y1532364D02*
G01*
X3334255Y1548726D01*
X3339708Y1559636D01*
X3339708Y1576001D01*
X3334255Y1586910D01*
X3317890Y1592364D01*
X3263346Y1592364D01*
X3356074Y1712363D02*
G01*
X3361527Y1723273D01*
X3377890Y1739635D01*
X3263346Y1739635D01*
X3290618Y1781091D02*
G01*
X3285164Y1775637D01*
X3279708Y1781091D01*
X3285164Y1786547D01*
X3290618Y1781091D01*
X3377890Y1855274D02*
G01*
X3372436Y1838909D01*
X3356074Y1827999D01*
X3328799Y1822546D01*
X3312436Y1822546D01*
X3285164Y1827999D01*
X3268799Y1838909D01*
X3263346Y1855274D01*
X3263346Y1866181D01*
X3268799Y1882546D01*
X3285164Y1893455D01*
X3312436Y1898909D01*
X3328799Y1898909D01*
X3356074Y1893455D01*
X3372436Y1882546D01*
X3377890Y1866181D01*
X3377890Y1855274D01*
X850910Y950003D02*
G01*
X755454Y950003D01*
X850910Y950003D02*
G01*
X850910Y990912D01*
X846363Y1004549D01*
X841819Y1009093D01*
X832728Y1013640D01*
X823638Y1013640D01*
X814547Y1009093D01*
X810000Y1004549D01*
X805454Y990912D01*
X805454Y950003D02*
G01*
X805454Y990912D01*
X800910Y1004549D01*
X796363Y1009093D01*
X787272Y1013640D01*
X773638Y1013640D01*
X764547Y1009093D01*
X760001Y1004549D01*
X755454Y990912D01*
X755454Y950003D01*
X819091Y1043640D02*
G01*
X773638Y1043640D01*
X760001Y1048184D01*
X755454Y1057275D01*
X755454Y1070912D01*
X760001Y1080002D01*
X773638Y1093640D01*
X819091Y1093640D02*
G01*
X755454Y1093640D01*
X850910Y1123640D02*
G01*
X846363Y1128184D01*
X850910Y1132730D01*
X855456Y1128184D01*
X850910Y1123640D01*
X819091Y1128184D02*
G01*
X755454Y1128184D01*
X850910Y1162730D02*
G01*
X755454Y1162730D01*
X850910Y1247277D02*
G01*
X755454Y1247277D01*
X805454Y1247277D02*
G01*
X814547Y1238183D01*
X819091Y1229093D01*
X819091Y1215458D01*
X814547Y1206367D01*
X805454Y1197274D01*
X791819Y1192730D01*
X782728Y1192730D01*
X769091Y1197274D01*
X760001Y1206367D01*
X755454Y1215458D01*
X755454Y1229093D01*
X760001Y1238183D01*
X769091Y1247277D01*
X850910Y1401820D02*
G01*
X755454Y1401820D01*
X805454Y1401820D02*
G01*
X814547Y1392730D01*
X819091Y1383639D01*
X819091Y1370002D01*
X814547Y1360911D01*
X805454Y1351821D01*
X791819Y1347276D01*
X782728Y1347276D01*
X769091Y1351821D01*
X760001Y1360911D01*
X755454Y1370002D01*
X755454Y1383639D01*
X760001Y1392730D01*
X769091Y1401820D01*
X819091Y1486367D02*
G01*
X755454Y1486367D01*
X805454Y1486367D02*
G01*
X814547Y1477276D01*
X819091Y1468186D01*
X819091Y1454548D01*
X814547Y1445458D01*
X805454Y1436367D01*
X791819Y1431820D01*
X782728Y1431820D01*
X769091Y1436367D01*
X760001Y1445458D01*
X755454Y1454548D01*
X755454Y1468186D01*
X760001Y1477276D01*
X769091Y1486367D01*
X850910Y1530002D02*
G01*
X773638Y1530002D01*
X760001Y1534548D01*
X755454Y1543639D01*
X755454Y1552729D01*
X819091Y1516367D02*
G01*
X819091Y1548185D01*
X791819Y1582729D02*
G01*
X791819Y1637276D01*
X800910Y1637276D01*
X810000Y1632729D01*
X814547Y1628185D01*
X819091Y1619095D01*
X819091Y1605457D01*
X814547Y1596367D01*
X805454Y1587276D01*
X791819Y1582729D01*
X782728Y1582729D01*
X769091Y1587276D01*
X760001Y1596367D01*
X755454Y1605457D01*
X755454Y1619095D01*
X760001Y1628185D01*
X769091Y1637276D01*
X810000Y1671820D02*
G01*
X805454Y1667276D01*
X800910Y1671820D01*
X805454Y1676366D01*
X810000Y1671820D01*
X778182Y1671820D02*
G01*
X773638Y1667276D01*
X769091Y1671820D01*
X773638Y1676366D01*
X778182Y1671820D01*
X587270Y1013637D02*
G01*
X596361Y1004547D01*
X600908Y990909D01*
X600908Y972728D01*
X596361Y959091D01*
X587270Y950000D01*
X578180Y950000D01*
X569089Y954547D01*
X564545Y959091D01*
X559998Y968181D01*
X550908Y995453D01*
X546361Y1004547D01*
X541817Y1009091D01*
X532726Y1013637D01*
X519089Y1013637D01*
X509998Y1004547D01*
X505452Y990909D01*
X505452Y972728D01*
X509998Y959091D01*
X519089Y950000D01*
X541817Y1043637D02*
G01*
X541817Y1098181D01*
X550908Y1098181D01*
X559998Y1093637D01*
X564545Y1089091D01*
X569089Y1080000D01*
X569089Y1066363D01*
X564545Y1057272D01*
X555452Y1048181D01*
X541817Y1043637D01*
X532726Y1043637D01*
X519089Y1048181D01*
X509998Y1057272D01*
X505452Y1066363D01*
X505452Y1080000D01*
X509998Y1089091D01*
X519089Y1098181D01*
X569089Y1128181D02*
G01*
X505452Y1128181D01*
X541817Y1128181D02*
G01*
X555452Y1132728D01*
X564545Y1141818D01*
X569089Y1150909D01*
X569089Y1164546D01*
X600908Y1194546D02*
G01*
X596361Y1199090D01*
X600908Y1203637D01*
X605454Y1199090D01*
X600908Y1194546D01*
X569089Y1199090D02*
G01*
X505452Y1199090D01*
X569089Y1288181D02*
G01*
X505452Y1288181D01*
X555452Y1288181D02*
G01*
X564545Y1279090D01*
X569089Y1270000D01*
X569089Y1256365D01*
X564545Y1247274D01*
X555452Y1238181D01*
X541817Y1233637D01*
X532726Y1233637D01*
X519089Y1238181D01*
X509998Y1247274D01*
X505452Y1256365D01*
X505452Y1270000D01*
X509998Y1279090D01*
X519089Y1288181D01*
X600908Y1318181D02*
G01*
X505452Y1318181D01*
X569089Y1418183D02*
G01*
X505452Y1418183D01*
X550908Y1418183D02*
G01*
X564545Y1431818D01*
X569089Y1440908D01*
X569089Y1454546D01*
X564545Y1463636D01*
X550908Y1468183D01*
X505452Y1468183D01*
X569089Y1498183D02*
G01*
X523636Y1498183D01*
X509998Y1502727D01*
X505452Y1511818D01*
X505452Y1525455D01*
X509998Y1534546D01*
X523636Y1548183D01*
X569089Y1548183D02*
G01*
X505452Y1548183D01*
X569089Y1578183D02*
G01*
X505452Y1578183D01*
X550908Y1578183D02*
G01*
X564545Y1591818D01*
X569089Y1600908D01*
X569089Y1614545D01*
X564545Y1623636D01*
X550908Y1628183D01*
X505452Y1628183D01*
X550908Y1628183D02*
G01*
X564545Y1641817D01*
X569089Y1650908D01*
X569089Y1664545D01*
X564545Y1673636D01*
X550908Y1678183D01*
X505452Y1678183D01*
X559998Y1712727D02*
G01*
X555452Y1708183D01*
X550908Y1712727D01*
X555452Y1717273D01*
X559998Y1712727D01*
X528180Y1712727D02*
G01*
X523636Y1708183D01*
X519089Y1712727D01*
X523636Y1717273D01*
X528180Y1712727D01*
D19*
X2075004Y640328D02*
G01*
X2075004Y531108D01*
X2075004Y640328D02*
G01*
X2028268Y640328D01*
X2012774Y635248D01*
X2007440Y629914D01*
X2002360Y619500D01*
X2002360Y609086D01*
X2007440Y598672D01*
X2012774Y593592D01*
X2028268Y588258D01*
X2075004Y588258D01*
X2038682Y588258D02*
G01*
X2002360Y531108D01*
X1968070Y619500D02*
G01*
X1957656Y624834D01*
X1941908Y640328D01*
X1941908Y531108D01*
G36*
X449986Y2424988D02*
G01*
X449986Y1775002D01*
X649986Y1775002D01*
X649986Y2424988D01*
G37*
G36*
X700024Y2424988D02*
G01*
X700024Y1775002D01*
X900023Y1775002D01*
X900023Y2424988D01*
G37*
X1952381Y708291D02*
G01*
X1823887Y708291D01*
X1823887Y891710D01*
X1952381Y891710D01*
X2047620Y708291D02*
G01*
X2176114Y708291D01*
X2176114Y891710D01*
X2047620Y891710D01*
M02*
