G04 Layer: TopSilkscreenLayer*
G04 EasyEDA v6.5.1, 2022-06-13 06:58:02*
G04 a67cddfb3fce44daa9051d46cbbcc19f,10*
G04 Gerber Generator version 0.2*
G04 Scale: 100 percent, Rotated: No, Reflected: No *
G04 Dimensions in millimeters *
G04 leading zeros omitted , absolute positions ,4 integer and 5 decimal *
%FSLAX45Y45*%
%MOMM*%

%ADD10C,0.2540*%
%ADD18C,0.2032*%

%LPD*%
D18*
X404621Y1684642D02*
G01*
X390905Y1711820D01*
X363728Y1738998D01*
X336295Y1752714D01*
X281939Y1752714D01*
X254507Y1738998D01*
X227329Y1711820D01*
X213613Y1684642D01*
X199897Y1643748D01*
X199897Y1575422D01*
X213613Y1534528D01*
X227329Y1507350D01*
X254507Y1479918D01*
X281939Y1466456D01*
X336295Y1466456D01*
X363728Y1479918D01*
X390905Y1507350D01*
X404621Y1534528D01*
X404621Y1575422D01*
X336295Y1575422D02*
G01*
X404621Y1575422D01*
X494537Y1752714D02*
G01*
X494537Y1466456D01*
X494537Y1752714D02*
G01*
X685545Y1466456D01*
X685545Y1752714D02*
G01*
X685545Y1466456D01*
X775462Y1752714D02*
G01*
X775462Y1466456D01*
X775462Y1752714D02*
G01*
X870965Y1752714D01*
X911860Y1738998D01*
X939037Y1711820D01*
X952754Y1684642D01*
X966470Y1643748D01*
X966470Y1575422D01*
X952754Y1534528D01*
X939037Y1507350D01*
X911860Y1479918D01*
X870965Y1466456D01*
X775462Y1466456D01*
X3122675Y1786783D02*
G01*
X3122675Y1541419D01*
X2999993Y1664101D02*
G01*
X3245358Y1664101D01*
X3499104Y1827677D02*
G01*
X3362706Y1827677D01*
X3348990Y1704995D01*
X3362706Y1718711D01*
X3403600Y1732173D01*
X3444493Y1732173D01*
X3485388Y1718711D01*
X3512820Y1691279D01*
X3526281Y1650385D01*
X3526281Y1623207D01*
X3512820Y1582313D01*
X3485388Y1554881D01*
X3444493Y1541419D01*
X3403600Y1541419D01*
X3362706Y1554881D01*
X3348990Y1568597D01*
X3335527Y1596029D01*
X3616452Y1827677D02*
G01*
X3725418Y1541419D01*
X3834638Y1827677D02*
G01*
X3725418Y1541419D01*
D10*
X1657101Y1292522D02*
G01*
X1657101Y1417236D01*
X1828043Y1279822D02*
G01*
X1973331Y1279822D01*
X1828043Y1279822D02*
G01*
X1828043Y1328336D01*
X1834901Y1349164D01*
X1848871Y1362880D01*
X1862587Y1369992D01*
X1883415Y1376850D01*
X1917959Y1376850D01*
X1938787Y1369992D01*
X1952757Y1362880D01*
X1966473Y1349164D01*
X1973331Y1328336D01*
X1973331Y1279822D01*
X1848871Y1484800D02*
G01*
X1973331Y1484800D01*
X1911101Y1422570D02*
G01*
X1911101Y1547284D01*
X2031243Y1279822D02*
G01*
X2176531Y1279822D01*
X2031243Y1279822D02*
G01*
X2031243Y1328336D01*
X2038101Y1349164D01*
X2052071Y1362880D01*
X2065787Y1369992D01*
X2086615Y1376850D01*
X2121159Y1376850D01*
X2141987Y1369992D01*
X2155957Y1362880D01*
X2169673Y1349164D01*
X2176531Y1328336D01*
X2176531Y1279822D01*
X2114301Y1422570D02*
G01*
X2114301Y1547284D01*
X2280671Y1342052D02*
G01*
X2405131Y1342052D01*
X2342901Y1279822D02*
G01*
X2342901Y1404536D01*
X1759564Y1646217D02*
G01*
X1759564Y1580177D01*
X1624944Y1580177D01*
X1624944Y1630977D01*
X1624944Y1646217D01*
X2257404Y1653837D02*
G01*
X2257404Y1638597D01*
X2257404Y1587797D01*
X2392024Y1587797D01*
X2392024Y1653837D01*
X1279504Y1605577D02*
G01*
X1226164Y1552237D01*
X1226164Y1206797D01*
X1279504Y1153457D01*
X2734924Y1600497D02*
G01*
X2783184Y1552237D01*
X2783184Y1196637D01*
X2730708Y1144160D01*
X2730708Y1079365D01*
X2730708Y1656377D01*
X1280698Y1656377D01*
X1495404Y1658917D02*
G01*
X1505564Y1658917D01*
X1558904Y1712257D01*
X2463144Y1712257D01*
X2511404Y1663997D01*
X1508104Y1074717D02*
G01*
X1556364Y1026457D01*
X2460604Y1026457D01*
X2513944Y1079797D01*
X2524104Y1079797D01*
X1280368Y1659374D02*
G01*
X1280368Y1079365D01*
X2730708Y1079365D01*
X1342951Y2050455D02*
G01*
X1342951Y1850555D01*
X2391097Y2911706D02*
G01*
X2389776Y2925541D01*
X2431237Y3149912D02*
G01*
X2169380Y3149912D01*
X1443662Y3250575D02*
G01*
X1999945Y3250575D01*
X2212131Y2939331D02*
G01*
X2211491Y2934743D01*
X2389131Y2939331D02*
G01*
X2389131Y2934743D01*
X1610761Y2939331D02*
G01*
X1610121Y2934743D01*
X1787761Y2939331D02*
G01*
X1787761Y2934743D01*
X2206221Y2878162D02*
G01*
X2209520Y2911706D01*
X1787761Y2934743D02*
G01*
X1788406Y2925541D01*
X1610121Y2934743D02*
G01*
X1609432Y2925541D01*
X1604850Y2878162D02*
G01*
X1608150Y2911706D01*
X1793031Y2878162D02*
G01*
X1789727Y2911706D01*
X2211491Y2934743D02*
G01*
X2210803Y2925541D01*
X2389131Y2934743D02*
G01*
X2389776Y2925541D01*
X1373243Y3190052D02*
G01*
X1372133Y3201690D01*
X1368902Y3212586D01*
X1363786Y3222503D01*
X1356339Y3231929D01*
X1347967Y3239178D01*
X1337505Y3245210D01*
X1325885Y3249099D01*
X1314338Y3250557D01*
X1342951Y3190052D02*
G01*
X1342616Y3195929D01*
X1341295Y3200941D01*
X1338628Y3206292D01*
X1334912Y3210943D01*
X1330703Y3214496D01*
X1325438Y3217473D01*
X1320068Y3219333D01*
X1313842Y3220270D01*
X1413377Y3180153D02*
G01*
X1420037Y3181103D01*
X1425531Y3182833D01*
X1429997Y3185121D01*
X1434523Y3188644D01*
X1437934Y3192663D01*
X1440787Y3197821D01*
X1442595Y3203272D01*
X1443626Y3209894D01*
X1568008Y3149912D02*
G01*
X1562056Y3149229D01*
X1556146Y3146612D01*
X1552209Y3141992D01*
X1548909Y3136714D01*
X1547583Y3130806D01*
X2169380Y3149912D02*
G01*
X2163427Y3149229D01*
X2157516Y3146612D01*
X2153574Y3141992D01*
X2150275Y3136714D01*
X2149635Y3130806D01*
X1850262Y3130806D02*
G01*
X1849523Y3134923D01*
X1848129Y3138761D01*
X1846120Y3142203D01*
X1843534Y3145149D01*
X1840682Y3147326D01*
X1837438Y3148901D01*
X1833808Y3149787D01*
X1830207Y3149942D01*
X2380561Y3029503D02*
G01*
X2379085Y3037522D01*
X2375890Y3045426D01*
X2371260Y3052391D01*
X2365400Y3058350D01*
X2357940Y3063585D01*
X2349581Y3067491D01*
X2340607Y3069960D01*
X2331293Y3070915D01*
X2380561Y3029503D02*
G01*
X2389131Y2939331D01*
X2206221Y2878162D02*
G01*
X2174608Y2531407D01*
X2212131Y2939331D02*
G01*
X2220013Y3029503D01*
X2209520Y2911706D02*
G01*
X2210803Y2925541D01*
X2149635Y3130806D02*
G01*
X2125266Y2534706D01*
X2270051Y3070933D02*
G01*
X2260691Y3069978D01*
X2251732Y3067560D01*
X2243378Y3063753D01*
X2236452Y3059064D01*
X2230015Y3052782D01*
X2225266Y3045942D01*
X2222091Y3038848D01*
X2220104Y3030247D01*
X2270043Y3070920D02*
G01*
X2330574Y3070920D01*
X1729201Y3070920D02*
G01*
X1668678Y3070920D01*
X1729209Y3070933D02*
G01*
X1737817Y3070202D01*
X1747540Y3067728D01*
X1755955Y3063938D01*
X1763501Y3058797D01*
X1769442Y3052925D01*
X1774192Y3046041D01*
X1777509Y3038210D01*
X1779122Y3030260D01*
X1850255Y3130806D02*
G01*
X1874588Y2534706D01*
X1568008Y3149912D02*
G01*
X1829866Y3149912D01*
X1342951Y3180153D02*
G01*
X1413377Y3180153D01*
X1793031Y2878162D02*
G01*
X1824596Y2531407D01*
X1787761Y2939331D02*
G01*
X1779191Y3029503D01*
X1789727Y2911706D02*
G01*
X1788406Y2925541D01*
X1277843Y3220288D02*
G01*
X1313352Y3220288D01*
X1313352Y3250575D02*
G01*
X1277843Y3250575D01*
X1618642Y3029503D02*
G01*
X1620286Y3037484D01*
X1623560Y3045327D01*
X1628198Y3052254D01*
X1634015Y3058177D01*
X1641401Y3063405D01*
X1649691Y3067324D01*
X1658627Y3069849D01*
X1667954Y3070903D01*
X1604850Y2878162D02*
G01*
X1573237Y2531407D01*
X1610761Y2939331D02*
G01*
X1618642Y3029503D01*
X1608150Y2911706D02*
G01*
X1609432Y2925541D01*
X1523893Y2534706D02*
G01*
X1547583Y3130806D01*
X1443662Y3250575D02*
G01*
X1443662Y3210435D01*
X1373235Y3180153D02*
G01*
X1373235Y3190052D01*
X1277843Y3250575D02*
G01*
X1277843Y3220288D01*
X1523888Y2534706D02*
G01*
X1525346Y2525087D01*
X1529829Y2517056D01*
X1537103Y2511333D01*
X1541698Y2509547D01*
X1546547Y2508722D01*
X1551465Y2508846D01*
X1556296Y2509926D01*
X1563867Y2514099D01*
X1569801Y2521237D01*
X1573070Y2530444D01*
X1824596Y2531407D02*
G01*
X1827982Y2521374D01*
X1833864Y2514267D01*
X1842089Y2509814D01*
X1851162Y2508704D01*
X1860042Y2510886D01*
X1867613Y2516311D01*
X1872531Y2524158D01*
X1874545Y2533726D01*
X2125266Y2534706D02*
G01*
X2126828Y2525100D01*
X2131380Y2517063D01*
X2138685Y2511358D01*
X2147409Y2508829D01*
X2156457Y2509578D01*
X2164753Y2513695D01*
X2170813Y2520561D01*
X2174440Y2530444D01*
X1342951Y3190052D02*
G01*
X1342951Y2420051D01*
X2394397Y2878162D02*
G01*
X2391097Y2911706D01*
X2451633Y3130806D02*
G01*
X2450807Y3135233D01*
X2449370Y3139041D01*
X2447305Y3142452D01*
X2444897Y3145149D01*
X2442052Y3147326D01*
X2438803Y3148901D01*
X2435181Y3149787D01*
X2431572Y3149942D01*
X2394397Y2878162D02*
G01*
X2425966Y2531407D01*
X2475958Y2534706D02*
G01*
X2451625Y3130806D01*
X2656933Y3190052D02*
G01*
X2656933Y2420051D01*
X2626649Y3190052D02*
G01*
X2627764Y3201690D01*
X2630990Y3212586D01*
X2636105Y3222503D01*
X2643545Y3231929D01*
X2651925Y3239178D01*
X2662384Y3245210D01*
X2674012Y3249099D01*
X2685547Y3250557D01*
X2656933Y3190052D02*
G01*
X2657208Y3195459D01*
X2658597Y3200941D01*
X2661257Y3206292D01*
X2664970Y3210943D01*
X2669189Y3214496D01*
X2674447Y3217473D01*
X2679824Y3219333D01*
X2686050Y3220270D01*
X2586515Y3180153D02*
G01*
X2579855Y3181103D01*
X2574361Y3182833D01*
X2569517Y3185358D01*
X2565369Y3188644D01*
X2561958Y3192663D01*
X2559105Y3197821D01*
X2557178Y3203750D01*
X2556266Y3209894D01*
X2656933Y3180153D02*
G01*
X2586515Y3180153D01*
X2722046Y3220288D02*
G01*
X2686540Y3220288D01*
X2686540Y3250575D02*
G01*
X2722046Y3250575D01*
X2556233Y3250575D02*
G01*
X2556233Y3210435D01*
X2626654Y3180153D02*
G01*
X2626654Y3190052D01*
X2722046Y3250575D02*
G01*
X2722046Y3220288D01*
X2556233Y3250575D02*
G01*
X1999945Y3250575D01*
X2656933Y2050542D02*
G01*
X2656933Y1850641D01*
X2656933Y1850555D02*
G01*
X1342951Y1850555D01*
X2425966Y2531407D02*
G01*
X2429055Y2521894D01*
X2434894Y2514508D01*
X2443162Y2509913D01*
X2452334Y2508747D01*
X2461326Y2510856D01*
X2468996Y2516139D01*
X2473939Y2523705D01*
X2475364Y2528430D01*
X2475948Y2533769D01*
M02*
